<svg xmlns="http://www.w3.org/2000/svg" width="832.028" height="646" data-name="Layer 1"><path fill="#e6e6e6" d="M526.378 644.357s-12.753-31.391 25.505-54.934Z" data-name="Path 482"/><path fill="#e6e6e6" d="M510.694 643.786s-3.89-22.374-34-22.182Z" data-name="Path 483"/><path fill="#e6e6e6" d="M798.333 644.357s-16.849-41.472 33.695-72.575Z" data-name="Path 482"/><path fill="#e6e6e6" d="M777.612 643.602s-5.14-29.559-44.918-29.305" data-name="Path 483"/><path fill="#cbcbcb" d="m483.215 179.569-16.639-8.838 1.245-.662 16.639 8.839-1.245.661z"/><path fill="#cbcbcb" d="m468.701 179.569-1.244-.661 16.638-8.839 1.245.662-16.639 8.838zM344.058 112.63l.803-1.568 4.7 2.409-.802 1.567zM442.314 162.978l-9.355-4.794.803-1.567 9.355 4.794Zm-18.71-9.588-9.357-4.794.803-1.567 9.356 4.794Zm-18.712-9.588-9.356-4.794.803-1.567 9.356 4.794Zm-18.711-9.588-9.356-4.794.803-1.567 9.356 4.794Zm-18.712-9.588-9.355-4.794.803-1.567 9.355 4.794ZM451.67 167.772l.803-1.567 4.7 2.409-.803 1.567z"/><path fill="#e5e5e5" d="M97.571 228.92q0 .825-.053 1.636a24.782 24.782 0 0 1-2.322 8.997c-.01.024-.023.047-.033.07a16.82 16.82 0 0 1-.191.39 24.488 24.488 0 0 1-1.32 2.328 24.903 24.903 0 0 1-20.437 11.502l.246 14.177 3.215-1.693.574 1.091-3.765 1.983.46 26.33.006.352-2.486.553.005-.353.783-42.439a24.854 24.854 0 0 1-17.584-7.65c-.157-.162-.312-.33-.464-.495l-.017-.019a24.956 24.956 0 0 1-4.54-7.027c.024.028.05.054.074.081a24.934 24.934 0 0 1 11.822-32.13l.26-.127a24.953 24.953 0 0 1 32.328 9.814c.152.255.298.516.44.778a24.798 24.798 0 0 1 3 11.851Z"/><circle cx="94.215" cy="206.962" r="32.674" fill="#e5e5e5"/><path d="M254.076 312.138a32.677 32.677 0 0 0 54.445 34.581 32.677 32.677 0 1 1-54.445-34.581Z" opacity=".2" style="isolation:isolate" transform="translate(-183.986 -127)"/><path fill="#3f3d56" d="m95.983 297.986-3.337-.936.007-.359 1-54.35.05-2.71.001-.079.175-9.496.253-13.763v-.002l.172-9.329h.092l.176 10.107.229 13.155.164 9.334v.069l.007.385v.002l.317 18.195.033 1.808.655 37.607.006.362z"/><path fill="#3f3d56" d="m94.101 258.834 5.401-2.844.753 1.43-5.401 2.844z"/><path d="M517.77 101.216a832.274 832.274 0 0 0-123.752 1.903c-19.831 1.792-39.978 3.728-59.444 8.054-15.678 3.485-33.875 9.374-43.644 23.09a22.29 22.29 0 0 0-3.48 19.514c2.33 7.82 8.124 14.329 14.294 19.426 14.203 11.734 31.825 18.561 47.566 27.883 28.74 17.02 55.043 39.96 71.926 69.1 7.429 12.824 14.496 29.875 6.223 44.005-8.104 13.842-26.195 18.611-40.95 20.86-18.492 2.82-37.54 2.055-56.11.476a584.648 584.648 0 0 1-60.651-8.883c-39.275-7.542-78.192-17.135-118.013-21.497a341.78 341.78 0 0 0-60.17-1.74c-18.124 1.222-36.403 4.09-53.43 10.625-13.12 5.036-27.106 12.655-34.193 25.362-6.832 12.248-4.167 26.373 3.272 37.675 8.95 13.597 22.907 22.915 37.418 29.725 16.521 7.754 34.193 12.78 51.887 17.055 8.974 2.168 17.996 4.128 27.02 6.078 1.882.406 2.686-2.485.797-2.893-18.196-3.932-36.445-7.877-54.19-13.569-16.42-5.267-33.224-12.014-46.671-23.074-10.879-8.947-21.222-22.017-20.58-36.876.648-14.98 13.216-25.438 25.534-31.876 15.395-8.045 32.885-11.964 50.024-14.012a303.937 303.937 0 0 1 59.09-.804c39.727 3.023 78.566 12.073 117.517 19.966 37.84 7.668 76.86 14.769 115.638 12.802 15.37-.78 31.84-2.982 45.41-10.74 6.214-3.552 11.817-8.562 14.975-15.08a33.774 33.774 0 0 0 2.58-19.845c-2.2-14.77-10.973-28.466-19.726-40.23a194.417 194.417 0 0 0-33.14-34.329 261.405 261.405 0 0 0-43.849-28.565c-8.238-4.337-16.593-8.508-24.444-13.532-7.528-4.817-14.954-10.613-19.55-18.432-3.976-6.764-4.706-14.483-.565-21.342 4.189-6.938 11.406-11.777 18.522-15.313 17.146-8.519 37.08-10.8 55.84-13.136a825.914 825.914 0 0 1 121.45-6.056q14.794.348 29.569 1.225c1.928.114 1.922-2.887 0-3Z"/><path fill="#3f3d56" d="m491.607 5.052 6.23-4.982c-4.84-.534-6.828 2.105-7.642 4.194-3.78-1.57-7.896.488-7.896.488l12.464 4.525a9.432 9.432 0 0 0-3.156-4.225ZM461.375 20.825l6.23-4.982c-4.84-.534-6.828 2.105-7.642 4.194-3.78-1.57-7.896.488-7.896.488l12.463 4.525a9.432 9.432 0 0 0-3.155-4.225ZM491.607 45.8l6.23-4.983c-4.84-.534-6.828 2.106-7.642 4.195-3.78-1.57-7.896.487-7.896.487l12.464 4.525a9.432 9.432 0 0 0-3.156-4.224Z"/><g data-name="Group 27"><circle cx="398.219" cy="34.413" r="18.768" fill="#ff6583" data-name="Ellipse 7"/><path fill="#173753" d="M457.073 92.247H365a1.885 1.885 0 0 1-.344-.027l43.547-75.424a3.048 3.048 0 0 1 5.307 0l29.224 50.614 1.4 2.421Z" data-name="Path 63"/><path fill="#173753" d="M508.335 92.248H428.7l15.43-22.414 1.11-1.615 20.109-29.21a4.069 4.069 0 0 1 6.044-.361 3.638 3.638 0 0 1 .29.36Z" data-name="Path 65"/></g><path fill="#f1f1f1" d="M376.975 265.235c8.727 4.362 14.04 10.123 14.04 16.442 0 13.612-24.631 24.646-55.015 24.646-13.21 0-25.33-2.087-34.813-5.564 10.073 5.035 24.695 8.205 40.975 8.205 30.383 0 55.015-11.035 55.015-24.647 0-7.694-7.873-14.562-20.202-19.082Z"/><path fill="#f1f1f1" d="M396.387 274.585c9.848 4.922 15.843 11.423 15.843 18.553 0 15.36-27.793 27.81-62.078 27.81-14.906 0-28.581-2.355-39.282-6.278 11.366 5.681 27.865 9.258 46.235 9.258 34.284 0 62.078-12.451 62.078-27.81 0-8.682-8.884-16.433-22.796-21.533Z"/><path fill="#f1f1f1" d="M369.545 269.353c6.149 3.073 9.892 7.132 9.892 11.584 0 9.59-17.353 17.364-38.76 17.364a72.801 72.801 0 0 1-24.526-3.92c7.097 3.547 17.398 5.78 28.868 5.78 21.406 0 38.76-7.774 38.76-17.364 0-5.42-5.547-10.26-14.234-13.444Z"/><path fill="#3f3d56" d="M283.155 267.593s1.351 19.748 40.082 19.748 50.293-19.748 50.293-19.748ZM338.129 215.777a27.187 27.187 0 0 0-19.584-5.357 27.282 27.282 0 0 1-3.304 53.63 27.288 27.288 0 0 0 22.888-48.273Z"/><path fill="#3f3d56" d="M322.796 206.856h2.641v62.858h-2.641z"/><path fill="#cbcbcb" d="m498.984 160.153-.015-.025-.035-1.535 8.273-12.011-8.263 10.862-.03.324-.283-12.277 7.146-12.453-7.166 10.297.075-25.435v-.085l-.003.083-.474 20.046-6.513-8.142 6.492 9.87-.143 10.98-5.992-10.717 5.97 12.332-.08 6.107-.218 16.917-.016 1.264q.828.006 1.64-.028l-.376-16.249ZM459.373 165.434l-.014-.024-.036-1.535 8.273-12.012-8.263 10.862-.03.325-.283-12.277 7.146-12.453L459 148.616l.075-25.435v-.085l-.003.084-.474 20.046-6.513-8.143 6.492 9.87-.142 10.981-5.993-10.717 5.97 12.332-.079 6.106-.219 16.917-.016 1.264q.828.007 1.64-.027l-.376-16.25ZM478.738 148.71l-.014-.025-.036-1.535 8.273-12.011L478.698 146l-.03.324-.282-12.277 7.145-12.453-7.166 10.296.075-25.434v-.085l-.002.083-.475 20.046-6.512-8.142 6.491 9.87-.142 10.98-5.993-10.717 5.97 12.332-.079 6.107-.218 16.917-.016 1.264q.828.006 1.639-.028l-.375-16.249Z"/><circle cx="151.59" cy="430.437" r="10.563" fill="#173753"/><path fill="#ffb7b7" d="m715.399 625.419-9.779 3.633-18.668-35.99 14.433-5.362 14.014 37.719z"/><path fill="#2f2e41" d="m721.415 633.971-31.532 11.715-.148-.399a13.093 13.093 0 0 1 7.712-16.833h.001l19.259-7.155Z"/><path fill="#ffb7b7" d="m619.162 635.574-10.432-.001-4.963-40.238 15.397.001-.002 40.238z"/><path fill="#2f2e41" d="m620.972 645.686-33.638-.001v-.426a13.093 13.093 0 0 1 13.093-13.092h20.546ZM666.924 356.505l-3.404-6.808-28.931 14.466.85 5.956-5.53 7.233s-9.36 5.106-7.658 22.124l1.701 16.168 2.128 20.847-14.891 51.481-7.659 68.074L598 610.93l26.803-1.276 24.677-89.347 43.397 96.154 29.782-7.658-40.844-95.303-5.105-39.994s3.403-21.273-12.764-35.738l2.552-7.659v-9.437l8.51-45.022Z"/><path d="m648.999 520.172 18.72-66.372.962.271-18.72 66.372z" opacity=".2"/><path fill="#3f3d56" d="M624.378 436.491h41.695v4.255h-41.695z"/><ellipse cx="624.378" cy="439.044" fill="#3f3d56" rx="1.702" ry="4.255"/><circle cx="827.167" cy="452.598" r="22.682" fill="#ffb7b7" transform="rotate(-28.663 486.626 749.17)"/><circle cx="677.889" cy="297.435" r="20.066" fill="#2f2e41"/><path fill="#2f2e41" d="M703.353 295.285a20.067 20.067 0 1 1-39.143 8.23 20.067 20.067 0 0 0 39.143-8.23Z"/><path fill="#2f2e41" d="M624.081 319.3a23.724 23.724 0 1 0 14.157-19.1c-3.962-3.195-8.875-2.204-12.87 1.168-4.516 3.814-5.856 6.433-9.36 12.705 3.445.483 4.629 4.744 8.073 5.227Z"/><path fill="#173753" d="M707.455 387.511c-.254 6.722-.757 19.953-.757 20.628 0 .712-10.03 21.48-14.364 30.42v.004c-.308.63-.584 1.2-.83 1.704a4.029 4.029 0 0 1-3.702 2.275l-18.938-.34a4.036 4.036 0 0 1-3.966-3.934l-2.112-83.315a2.06 2.06 0 0 1 2.058-2.112h24.422a5.49 5.49 0 0 1 4.94 3.1l11.722 24.25a15.5 15.5 0 0 1 1.527 7.32Z"/><path fill="#173753" d="M664.569 432.55a54.232 54.232 0 0 1-12.94-10.935 60.008 60.008 0 0 1-14.955-34.888c-.963-11.072 1.234-19.303 6.53-24.463 6.731-6.559 15.894-5.606 16.281-5.562l.41.047 6.208 5.253-1.757 2.076-5.554-4.7c-1.7-.085-8.642-.104-13.712 4.856-4.668 4.565-6.584 12.054-5.697 22.258a57.308 57.308 0 0 0 14.208 33.236 52.657 52.657 0 0 0 12.29 10.44Z"/><path fill="#3f3d56" d="m666.72 407.694 33.089-6.796.182.888-33.09 6.796z"/><path fill="#3f3d56" d="m677.094 352.86.906-.038 2.15 52.651-.907.037zM707.455 387.511c-.254 6.722-.757 19.953-.757 20.628 0 .712-10.03 21.48-14.364 30.42l8.077-46.9a10.338 10.338 0 0 1 6.713-7.973 15.215 15.215 0 0 1 .331 3.825Z"/><path fill="#ffb7b7" d="M657.83 485.8a7.979 7.979 0 0 0-2.596-11.957l1.642-18.16-10.792-3.689-1.958 25.678a8.022 8.022 0 0 0 13.703 8.128Z"/><path fill="#cbcbcb" d="m659.24 468.228-19.124-.693.81-92.223a12.449 12.449 0 0 1 8.433-11.848 11.31 11.31 0 0 1 7.112-.007 12.45 12.45 0 0 1 8.422 12.743ZM827 646H446a1 1 0 0 1 0-2h381a1 1 0 0 1 0 2Z"/></svg>